<?xml version="1.0" standalone="no"?>
<!DOCTYPE svg PUBLIC "-//W3C//DTD SVG 20010904//EN"
 "http://www.w3.org/TR/2001/REC-SVG-20010904/DTD/svg10.dtd">
<svg version="1.0" xmlns="http://www.w3.org/2000/svg"
 width="509.000000pt" height="509.000000pt" viewBox="0 0 509.000000 509.000000"
 preserveAspectRatio="xMidYMid meet">
<metadata>
Created by potrace 1.11, written by Peter Selinger 2001-2013
</metadata>
<g transform="translate(0.000000,509.000000) scale(0.100000,-0.100000)"
fill="#000000" stroke="none">
<path d="M1 4513 c1 -478 3 -580 15 -598 8 -12 11 -25 7 -28 -3 -4 -1 -7 4 -7
6 0 14 6 17 13 3 6 4 0 2 -15 -2 -16 1 -28 5 -28 5 0 9 -15 8 -32 0 -28 -2
-30 -9 -13 -7 17 -9 17 -9 3 -1 -10 -6 -15 -15 -12 -8 3 -16 -4 -20 -18 -9
-36 -7 -278 3 -278 5 0 14 7 21 15 7 8 16 12 21 9 5 -3 9 2 9 10 0 12 4 13 23
3 36 -19 72 -57 72 -75 0 -9 7 -17 15 -17 8 0 16 -10 18 -22 2 -13 7 -23 11
-23 5 0 23 -16 42 -36 19 -20 44 -47 57 -60 13 -14 20 -30 16 -37 -4 -6 -3 -9
1 -4 10 8 45 -21 45 -37 0 -6 9 -17 20 -24 11 -7 20 -17 20 -23 0 -6 16 -26
35 -45 20 -19 35 -43 35 -56 0 -17 -3 -19 -9 -9 -7 11 -9 11 -13 0 -7 -19 10
-49 27 -49 17 0 47 -29 41 -39 -3 -4 8 -23 25 -42 16 -19 29 -36 30 -39 0 -3
2 -29 3 -57 3 -48 1 -53 -17 -53 -21 0 -21 0 -1 -15 12 -9 14 -14 6 -15 -9 0
-11 -7 -7 -20 7 -21 -10 -28 -18 -7 -3 7 -6 5 -6 -5 -1 -10 3 -18 7 -18 5 0 9
-7 9 -15 0 -8 -4 -15 -9 -15 -13 0 -9 -20 7 -36 13 -14 15 -14 15 1 0 9 4 14
9 11 16 -11 0 -42 -27 -54 -26 -11 -26 -11 7 -5 33 5 34 4 18 -11 -21 -21 -22
-27 -3 -20 16 6 25 -34 31 -144 4 -79 0 -85 -54 -89 -30 -2 -41 4 -76 42 -22
25 -47 45 -55 45 -17 0 -100 86 -100 104 0 6 5 17 12 24 8 8 9 12 1 12 -6 0
-14 -6 -16 -12 -4 -9 -6 -8 -6 2 -1 8 6 28 14 44 9 16 13 31 10 34 -7 8 -10 2
-29 -48 -9 -25 -14 -34 -11 -20 15 73 18 113 7 106 -8 -5 -12 1 -12 18 0 14
-4 28 -10 31 -6 3 -10 14 -10 23 0 15 2 15 15 1 9 -9 17 -25 18 -37 0 -11 4
-20 7 -20 41 4 50 -3 50 -39 0 -22 4 -33 8 -26 9 14 26 5 35 -17 3 -9 6 -3 6
13 1 18 -3 26 -10 22 -6 -4 -9 0 -7 11 2 12 -2 18 -10 16 -10 -2 -12 6 -9 25
2 15 2 22 0 16 -3 -7 -9 -13 -14 -13 -12 0 -12 1 6 43 13 31 13 35 1 31 -8 -3
-17 -21 -20 -40 -7 -33 -26 -48 -26 -20 0 8 -3 23 -6 33 -6 17 -6 17 8 -1 15
-18 15 -18 20 7 3 14 1 32 -3 39 -7 11 -9 11 -9 0 0 -7 -4 -10 -10 -7 -5 3
-10 1 -10 -4 0 -18 -20 -12 -46 14 -25 25 -26 25 -20 3 4 -14 0 -11 -11 10 -9
17 -20 32 -25 32 -12 0 -10 -14 4 -28 6 -6 8 -15 3 -19 -4 -5 -10 -2 -12 5 -3
6 -10 9 -15 5 -7 -4 -9 2 -6 15 6 23 -7 31 -15 10 -2 -7 -11 3 -20 24 -8 20
-24 45 -35 56 -20 20 -44 127 -44 200 0 20 -9 71 -19 112 -10 41 -22 93 -27
115 -7 26 -10 -491 -11 -1481 l-1 -1522 33 -5 c17 -2 42 -1 53 4 12 4 25 5 28
2 7 -8 375 -10 370 -2 -5 9 127 -1 146 -11 12 -6 240 -5 535 2 22 0 69 0 105
-1 36 -1 185 0 333 2 160 3 267 1 267 -5 0 -5 5 -6 10 -3 6 3 10 16 10 29 0
21 4 22 83 21 45 0 87 3 94 8 6 4 14 3 17 -2 4 -7 15 -7 30 -1 13 5 27 6 30 3
3 -3 13 0 23 8 9 8 14 9 10 3 -7 -13 80 -13 100 -1 6 4 13 1 16 -5 3 -10 7
-10 17 -1 8 8 19 9 30 3 9 -5 22 -5 30 0 7 4 19 6 27 3 8 -3 13 2 13 15 0 11
-7 22 -15 26 -8 3 -15 0 -15 -6 0 -7 -5 -6 -15 2 -14 11 -47 10 -102 -3 -13
-3 -23 -3 -23 1 0 12 -44 9 -52 -2 -5 -7 -8 -6 -8 2 0 7 -4 11 -9 7 -18 -11
-91 -13 -91 -2 0 6 -7 2 -15 -9 -14 -19 -14 -19 -15 1 -1 12 -4 15 -7 7 -4 -9
-8 -10 -18 -2 -9 8 -15 8 -20 0 -4 -7 -13 -7 -27 1 -13 7 -18 7 -14 1 4 -7 -6
-10 -24 -10 -33 1 -49 20 -44 51 4 31 32 43 90 40 33 -1 54 2 54 9 0 7 6 6 15
-2 12 -10 15 -10 15 1 0 9 3 10 8 4 4 -6 18 -10 32 -9 14 1 50 3 80 3 30 1 64
1 75 1 11 1 48 1 82 0 51 -1 62 2 65 17 6 23 -17 69 -39 83 -16 10 -16 10 2 6
27 -7 66 21 46 33 -11 7 -11 9 0 13 24 8 -7 35 -41 36 -73 2 -140 74 -140 149
0 79 40 119 123 125 20 1 37 5 37 9 0 3 16 -8 35 -26 40 -38 53 -77 35 -109
-10 -19 -9 -29 4 -55 16 -30 16 -32 -10 -57 -16 -17 -24 -34 -21 -45 3 -11 1
-22 -4 -25 -14 -8 13 -29 39 -31 14 -1 22 4 22 15 0 13 2 14 9 4 4 -8 10 -13
12 -12 2 1 13 -2 23 -6 13 -5 21 -3 24 5 3 8 8 9 16 2 6 -5 24 -12 39 -15 22
-4 30 0 37 17 5 12 9 16 9 8 1 -7 7 -11 16 -7 8 3 15 0 15 -6 0 -6 8 -2 18 10
18 20 19 20 32 2 7 -10 16 -19 19 -18 20 2 31 -4 31 -17 0 -8 -3 -15 -7 -15
-5 0 -21 -11 -38 -24 -29 -23 -29 -24 -11 -51 10 -14 20 -24 23 -21 4 3 11 2
17 -3 6 -5 58 -14 114 -21 57 -6 138 -17 180 -25 43 -7 80 -11 83 -9 3 2 7 32
8 68 3 88 -12 103 -97 100 -34 -1 -62 2 -62 6 0 13 29 20 52 11 12 -4 39 -5
60 -1 25 5 38 4 39 -4 1 -6 4 0 8 13 4 14 5 39 3 57 -4 29 -6 32 -19 19 -18
-18 -27 -19 -41 -2 -20 23 -112 215 -112 232 0 37 35 6 70 -63 20 -40 40 -75
43 -79 4 -3 18 20 33 51 24 53 26 67 28 231 l3 173 -41 39 c-23 21 -77 84
-121 138 -44 55 -93 116 -110 136 -16 20 -48 59 -70 87 -44 58 -55 63 -55 27
0 -31 -7 -31 -31 -3 -14 15 -16 24 -8 34 6 7 8 23 4 36 -9 27 -82 128 -94 128
-4 0 -9 -46 -10 -102 -2 -95 -4 -104 -28 -126 -15 -14 -23 -17 -20 -8 4 10 1
13 -9 9 -7 -3 -14 0 -14 7 0 7 -6 10 -14 7 -34 -13 -44 15 -49 143 -3 69 -8
136 -10 150 -18 96 -19 130 -6 130 12 0 12 2 0 9 -9 6 -11 16 -6 27 4 11 9 50
11 88 2 38 8 74 14 80 9 8 11 7 10 -4 -5 -35 1 -90 9 -90 17 0 24 35 26 133 2
54 7 103 13 110 16 21 31 76 22 82 -5 3 -62 5 -127 3 -153 -2 -190 15 -228
107 -25 59 -13 113 32 148 35 26 39 27 172 27 216 -1 328 -14 386 -43 118 -60
207 -201 242 -380 13 -66 -58 -232 -126 -294 -25 -24 -54 -45 -63 -48 -10 -4
-18 -9 -18 -13 0 -8 280 -356 316 -392 13 -13 24 -19 24 -12 0 6 5 12 11 12 6
0 8 -7 4 -17 -4 -13 -3 -15 5 -7 6 6 8 18 4 27 -7 19 -24 23 -24 5 0 -6 -3 -8
-7 -4 -10 10 -13 36 -3 36 4 0 6 11 5 24 -2 19 1 23 13 19 10 -4 20 -11 24
-17 5 -7 12 -4 21 8 11 15 12 26 4 47 -9 21 -7 30 6 44 19 18 23 30 7 20 -5
-3 -7 0 -5 7 4 9 23 14 51 15 52 2 63 8 45 26 -11 9 -14 9 -18 0 -3 -7 -12
-13 -20 -13 -9 0 -13 6 -9 15 9 24 -14 18 -40 -11 -17 -18 -24 -21 -24 -10 0
9 -4 16 -10 16 -5 0 -10 9 -10 21 0 11 -4 17 -10 14 -6 -4 -8 -16 -4 -28 5
-18 4 -20 -7 -9 -11 10 -11 16 -1 32 6 10 9 26 6 34 -3 8 0 17 7 22 7 4 10 3
6 -3 -4 -6 0 -27 8 -47 14 -33 17 -35 31 -21 13 13 13 18 1 35 -7 11 -17 17
-20 13 -4 -3 -7 3 -7 15 0 11 -8 27 -18 34 -10 7 -18 24 -19 38 -1 14 -4 39
-7 55 -5 27 -5 27 3 5 5 -15 9 -18 10 -9 1 9 12 32 25 52 13 19 22 38 18 41
-3 3 4 6 16 6 27 0 38 17 15 23 -11 3 -8 5 10 6 15 0 27 -3 27 -9 0 -18 121
-12 143 7 19 17 20 17 14 1 -7 -21 -3 -22 25 -7 15 8 19 8 14 0 -5 -7 5 -11
28 -11 20 0 36 5 36 11 0 5 -4 7 -10 4 -6 -3 -10 3 -10 14 0 29 17 26 24 -4
10 -38 29 -31 21 7 l-6 33 17 -33 c15 -30 18 -31 30 -15 12 17 13 17 20 -2 8
-21 23 -35 39 -35 5 0 4 5 -3 12 -7 7 -12 19 -12 27 0 12 3 11 18 -2 20 -18
32 -13 32 11 0 11 -3 12 -14 3 -10 -9 -15 -8 -19 2 -5 12 1 13 44 8 4 -1 9
-10 12 -21 3 -11 11 -20 19 -20 9 0 10 2 1 8 -6 4 -15 20 -18 35 -4 15 -12 27
-17 27 -6 0 -8 8 -6 18 6 21 -23 54 -30 34 -2 -7 -8 -10 -13 -7 -5 4 -6 -7 -3
-22 3 -17 -1 -36 -10 -48 -15 -20 -15 -20 -16 3 0 13 4 20 10 17 6 -3 10 3 10
15 0 17 -4 20 -20 15 -11 -4 -20 -2 -20 4 0 6 6 11 14 11 8 0 21 9 29 21 14
20 16 20 40 4 22 -14 25 -14 31 0 3 9 2 13 -4 10 -6 -3 -10 -2 -10 4 0 15 18
23 25 11 8 -13 35 -13 35 0 0 6 -7 10 -15 10 -17 0 -20 16 -4 26 6 3 8 17 5
30 -4 13 -2 24 3 24 5 0 12 -10 14 -22 4 -20 4 -20 6 4 0 15 6 30 11 33 7 4 7
13 0 26 -6 11 -15 17 -21 14 -5 -4 -9 -1 -9 6 0 7 9 9 22 6 22 -6 22 -5 4 8
-16 12 -21 12 -34 -1 -11 -11 -17 -12 -22 -4 -9 15 -320 21 -320 6 0 -8 -3 -8
-8 0 -4 6 -30 11 -59 12 -63 1 -82 10 -125 64 -27 35 -33 52 -35 94 0 29 -4
58 -8 63 -3 6 0 9 7 6 8 -3 19 7 26 25 8 16 17 29 20 29 24 -4 42 3 42 16 0 8
6 12 13 9 27 -10 327 -9 327 1 0 6 3 6 8 0 9 -13 312 -14 312 -1 0 4 6 6 14 3
10 -4 12 6 9 49 -4 55 8 72 22 32 7 -20 9 -18 12 15 2 20 8 37 13 37 5 0 12 9
15 21 4 11 9 18 12 16 2 -3 -3 -19 -12 -36 -8 -17 -12 -31 -8 -31 5 0 17 16
28 36 17 33 20 34 32 18 12 -17 13 -17 13 2 0 11 -5 25 -12 32 -7 7 -8 12 -2
12 15 0 34 -38 28 -57 -4 -14 -3 -15 4 -4 8 10 12 9 24 -8 14 -20 15 -20 32
-2 9 10 15 24 13 32 -2 8 -2 11 0 6 3 -4 9 -5 14 -2 5 4 6 -1 3 -9 -6 -17 21
-62 29 -49 3 5 2 15 -4 23 -16 27 -9 33 10 9 19 -23 19 -24 -1 -51 -11 -16
-15 -28 -9 -28 6 0 11 5 11 10 0 6 5 10 10 10 6 0 10 -8 10 -17 0 -12 5 -8 15
11 10 18 12 32 6 35 -6 4 -6 12 -1 21 8 12 10 12 10 -4 0 -16 2 -17 18 -5 15
13 16 12 4 -3 -17 -21 -8 -38 19 -38 10 0 29 -10 40 -21 l22 -22 -7 28 c-6 25
-6 26 9 11 15 -14 35 -14 35 0 0 3 -4 3 -8 0 -5 -3 -15 6 -22 19 -7 13 -17 22
-22 19 -4 -3 -8 0 -8 7 0 6 -67 80 -149 163 -483 492 -702 716 -737 753 -21
24 -43 43 -47 43 -5 0 -20 -9 -34 -20 -14 -11 -23 -20 -20 -20 2 0 -43 -47
-101 -105 -58 -58 -109 -105 -113 -105 -4 0 -94 -85 -199 -190 -106 -104 -196
-190 -200 -190 -5 0 -12 -9 -15 -20 -4 -11 -11 -18 -16 -15 -5 4 -9 2 -9 -2 0
-5 -20 -30 -45 -57 -25 -27 -45 -55 -45 -63 0 -7 -5 -13 -10 -13 -16 0 -70
-64 -65 -77 3 -8 -5 -13 -19 -13 -13 0 -26 -6 -29 -13 -3 -8 -20 -21 -39 -29
-29 -14 -114 -15 -683 -11 -535 4 -654 7 -677 19 -47 24 -81 79 -86 139 -4 49
-2 55 31 91 l35 39 279 -1 c153 -1 368 -5 478 -8 187 -6 379 -9 452 -7 31 1
89 53 255 232 24 25 44 45 46 44 6 -5 72 66 72 77 0 6 3 9 6 6 3 -4 23 11 43
33 21 21 41 36 45 32 3 -3 6 -1 6 5 0 6 34 46 75 87 41 42 75 74 75 71 0 -8
29 22 58 58 12 16 22 26 22 23 0 -4 35 30 78 74 181 190 254 258 288 269 63
21 98 6 177 -74 328 -333 926 -944 978 -1001 35 -38 71 -75 80 -82 10 -7 45
-40 79 -74 48 -48 65 -58 72 -48 7 10 8 8 4 -7 -4 -14 4 -29 29 -54 22 -22 35
-29 36 -19 0 7 7 0 14 -17 7 -16 32 -49 56 -72 41 -42 42 -42 56 -22 8 12 12
27 9 35 -3 8 0 15 6 15 7 0 6 5 -2 15 -17 21 -4 35 31 30 41 -5 57 -20 62 -58
2 -18 5 396 5 918 l2 950 -233 1 c-159 1 -234 -2 -239 -10 -5 -8 -8 -7 -8 1 0
9 -14 11 -45 9 -34 -3 -47 0 -55 12 -5 10 -10 12 -10 5 0 -21 -34 -7 -41 18
-7 24 -7 24 -8 -3 -1 -25 -3 -26 -30 -18 -16 4 -32 5 -36 2 -3 -4 -10 0 -15 8
-8 12 -10 12 -10 -4 0 -18 -1 -18 -18 -3 -14 13 -21 14 -30 5 -9 -9 -12 -9
-12 2 0 9 -5 8 -16 -6 -8 -10 -13 -14 -10 -8 3 7 -12 10 -44 9 -28 -1 -50 2
-50 6 0 4 -14 3 -32 -2 -33 -9 -47 0 -48 31 -1 8 -7 2 -14 -15 -12 -28 -13
-29 -20 -9 -7 23 1 54 15 54 4 0 1 16 -7 35 -17 41 -17 48 -4 40 5 -3 10 -15
10 -26 0 -10 6 -19 14 -19 8 0 16 -7 20 -15 3 -8 0 -15 -6 -15 -9 0 -9 -3 -1
-11 16 -16 33 -2 33 27 0 16 6 24 17 24 13 0 14 -3 6 -11 -6 -6 -9 -18 -6 -26
3 -8 0 -19 -8 -23 -7 -5 -10 -13 -5 -17 5 -4 11 -2 13 5 6 17 23 15 23 -3 0
-8 5 -15 10 -15 13 0 13 17 0 25 -15 10 -12 28 4 22 8 -3 17 1 20 10 4 8 13
13 20 10 8 -3 17 1 20 9 7 19 26 18 26 -1 0 -8 -7 -15 -15 -15 -8 0 -15 -4
-15 -10 0 -14 13 -13 28 2 9 9 12 8 12 -4 0 -9 -6 -18 -12 -21 -7 -2 -9 -8 -5
-13 4 -5 13 -2 18 6 8 11 12 12 16 3 2 -7 9 -13 14 -13 6 0 8 4 5 9 -9 13 4
41 19 41 8 0 11 -10 9 -27 l-4 -28 11 28 c7 17 17 27 27 25 10 -1 31 2 47 6
l30 8 -25 11 c-21 8 -22 11 -7 14 10 3 24 0 32 -7 10 -9 15 -7 20 10 4 11 11
17 17 14 8 -5 9 -1 5 9 -22 53 -22 53 -5 39 13 -10 17 -10 22 4 9 23 7 31 -4
14 -15 -24 -12 5 5 46 l15 35 -60 -2 c-33 -1 -63 1 -67 4 -3 4 -12 2 -20 -4
-7 -6 -13 -8 -13 -3 0 10 -133 10 -149 0 -6 -4 -11 -1 -11 6 0 10 -2 10 -9 -1
-5 -7 -11 -9 -14 -5 -6 10 -299 10 -315 0 -6 -3 -13 -2 -17 4 -3 5 -11 10 -16
10 -6 0 -7 -6 -3 -12 5 -9 2 -9 -9 1 -14 11 -17 11 -17 0 0 -9 -3 -10 -8 -4
-10 15 -392 16 -392 1 0 -6 -5 -4 -10 4 -5 8 -10 11 -10 7 0 -4 -9 -3 -20 3
-13 7 -20 7 -20 1 0 -6 -7 -8 -15 -5 -25 10 3 39 41 41 19 1 34 -2 34 -7 0 -5
20 -8 44 -7 26 1 42 5 39 11 -4 6 1 6 13 2 47 -19 74 -24 74 -14 0 7 17 8 48
4 81 -11 117 -14 105 -9 -28 10 -11 21 30 18 29 -2 41 -7 39 -16 -1 -8 7 -3
19 11 17 20 20 21 14 5 -3 -11 -3 -16 1 -12 4 4 14 1 22 -6 13 -10 14 -8 9 13
-4 14 -4 20 -1 13 3 -7 12 -9 20 -6 10 4 12 0 8 -13 -6 -17 -5 -17 9 1 l16 20
1 -20 c1 -19 1 -19 14 -2 15 20 30 23 23 4 -3 -7 3 -13 14 -14 13 -1 16 3 12
15 -6 15 -5 15 10 3 11 -9 17 -10 17 -2 0 18 18 13 23 -6 4 -17 5 -17 6 0 0
10 6 15 11 12 6 -4 8 -11 5 -16 -3 -5 1 -6 9 -3 9 3 16 10 16 15 0 5 5 9 11 9
5 0 7 -4 4 -10 -3 -5 -1 -10 4 -10 6 0 11 6 11 13 0 8 4 7 10 -3 8 -12 11 -13
19 -1 6 9 11 10 15 3 4 -6 13 -9 21 -5 9 3 22 0 30 -7 13 -11 14 -10 9 4 -4
11 -1 16 10 16 9 0 16 -7 16 -15 0 -8 4 -15 10 -15 5 0 7 8 3 18 -6 15 -4 15
15 -2 21 -18 23 -18 42 -1 11 10 20 13 20 7 0 -15 30 -9 41 9 6 9 9 10 9 2 0
-7 6 -10 14 -7 7 3 21 -2 30 -11 13 -14 17 -14 22 -2 7 19 112 16 125 -4 6 -9
9 -10 9 -2 0 6 9 10 20 8 11 -2 22 1 26 7 4 6 10 5 15 -3 6 -9 12 -10 17 -4 9
12 153 14 145 2 -3 -5 4 -4 14 2 11 6 23 7 27 4 3 -3 6 0 6 8 0 12 2 12 9 0
12 -18 112 -16 123 2 6 9 8 8 8 -2 0 -8 7 -11 20 -8 11 3 20 0 20 -6 0 -8 3
-8 9 1 4 7 14 12 22 10 10 -2 15 9 17 35 l3 37 -2546 0 -2546 0 2 -577z m1133
521 c3 -8 2 -12 -4 -9 -6 3 -10 10 -10 16 0 14 7 11 14 -7z m356 2 c0 -3 -4
-8 -10 -11 -5 -3 -10 -1 -10 4 0 6 5 11 10 11 6 0 10 -2 10 -4z m37 -28 c-3
-7 -5 -2 -5 12 0 14 2 19 5 13 2 -7 2 -19 0 -25z m569 23 c-4 -5 -3 -11 1 -14
5 -2 2 -2 -4 -1 -7 2 -13 -1 -13 -6 0 -5 10 -11 23 -13 12 -2 6 -4 -15 -4 -31
0 -34 2 -22 14 8 8 14 19 14 24 0 5 5 9 11 9 5 0 8 -4 5 -9z m114 -11 c5 14 8
20 9 13 1 -6 3 -18 6 -25 4 -11 -6 -14 -45 -14 -34 0 -50 4 -50 13 0 17 17 17
23 1 2 -8 9 -5 18 9 l14 23 9 -23 9 -22 7 25z m369 -7 c8 8 11 8 11 0 0 -6 14
-10 33 -9 19 1 31 6 30 14 -2 6 2 12 7 12 6 0 10 -7 10 -15 0 -9 9 -15 23 -15
13 0 17 -3 10 -8 -13 -9 -201 -7 -210 2 -3 3 2 6 13 6 15 0 16 2 4 9 -8 6 -19
7 -25 4 -5 -3 -4 0 2 7 10 11 16 11 31 -3 19 -18 37 -12 24 8 -4 6 0 3 9 -6
12 -13 19 -15 28 -6z m-580 -5 c4 6 11 5 19 -4 11 -12 7 -14 -26 -14 -23 0
-45 6 -52 15 -9 10 -9 15 -1 15 6 0 11 -4 11 -10 0 -5 5 -10 10 -10 6 0 10 8
10 18 1 15 2 15 11 -2 7 -11 14 -14 18 -8z m406 12 c-3 -5 -14 -10 -23 -9 -14
0 -13 2 3 9 27 11 27 11 20 0z m395 6 c0 -2 -7 -7 -16 -10 -8 -3 -12 -2 -9 4
6 10 25 14 25 6z m57 -10 c-8 -21 66 -17 75 4 5 11 7 9 7 -7 1 -18 7 -23 27
-23 14 0 23 4 19 10 -3 5 6 9 22 8 15 -1 39 1 53 6 20 6 22 5 10 -4 -12 -8 -8
-10 18 -6 17 2 32 0 32 -4 0 -5 10 -11 23 -13 12 -3 -3 -4 -33 -4 -30 1 -58 6
-62 12 -5 6 -12 5 -18 -5 -9 -13 -11 -13 -20 0 -5 8 -10 10 -10 4 0 -9 -39
-11 -136 -10 -123 2 -137 4 -147 22 -9 17 -9 18 6 5 11 -9 17 -10 17 -2 0 6 5
11 11 11 5 0 7 -4 4 -10 -3 -5 13 -9 39 -8 28 0 47 6 50 14 3 8 8 14 12 14 3
0 4 -6 1 -14z m323 -1 c0 6 5 3 10 -5 6 -10 10 -11 10 -2 0 18 94 16 110 -3 7
-9 10 -18 6 -22 -6 -6 -136 -7 -141 -1 -1 2 -6 14 -9 28 -6 19 -5 21 3 10 6
-8 11 -10 11 -5z m-1260 -11 c0 -9 -11 -14 -29 -14 -31 0 -50 15 -29 23 27 9
58 4 58 -9z m370 4 c0 5 9 8 20 5 32 -8 12 -23 -31 -23 -34 0 -38 2 -27 14 9
10 17 11 26 4 8 -7 12 -7 12 0z m80 -16 c-25 -4 -35 2 -26 17 5 7 13 7 27 -2
20 -12 20 -12 -1 -15z m600 18 c0 -5 -5 -10 -11 -10 -5 0 -7 5 -4 10 3 6 8 10
11 10 2 0 4 -4 4 -10z m-509 -10 c10 0 19 -3 19 -8 0 -4 -18 -6 -40 -4 -22 2
-37 8 -34 14 3 5 13 7 21 4 8 -3 23 -6 34 -6z m1022 -55 c-3 -9 -8 -14 -10
-11 -3 3 -2 9 2 15 9 16 15 13 8 -4z m727 -82 c-11 -17 -11 -17 -6 0 3 10 6
24 7 30 0 9 2 9 5 0 3 -7 0 -20 -6 -30z m-69 -6 c-10 -9 -11 -8 -5 6 3 10 9
15 12 12 3 -3 0 -11 -7 -18z m266 1 c-3 -8 -6 -5 -6 6 -1 11 2 17 5 13 3 -3 4
-12 1 -19z m71 -12 c1 -32 0 -33 -23 -22 -22 10 -22 11 -6 14 13 2 17 9 14 23
-3 10 -1 19 4 19 5 0 10 -15 11 -34z m-441 -8 c-3 -8 -6 -5 -6 6 -1 11 2 17 5
13 3 -3 4 -12 1 -19z m313 12 c0 -5 -2 -10 -4 -10 -3 0 -8 5 -11 10 -3 6 -1
10 4 10 6 0 11 -4 11 -10z m-1017 -15 c-3 -9 -8 -14 -10 -11 -3 3 -2 9 2 15 9
16 15 13 8 -4z m669 -7 c-7 -7 -12 -8 -12 -2 0 6 3 14 7 17 3 4 9 5 12 2 2 -3
-1 -11 -7 -17z m-661 -41 c-11 -24 -21 -48 -21 -54 0 -5 -10 -18 -22 -29 -12
-10 -18 -13 -14 -6 4 7 3 18 -2 25 -6 7 -14 29 -20 49 -8 31 -8 36 5 31 8 -3
12 -12 9 -19 -3 -7 -1 -16 4 -19 6 -4 10 -1 10 6 0 8 3 9 13 0 11 -9 17 -2 30
31 9 23 20 39 23 35 3 -3 -3 -26 -15 -50z m49 33 c0 -11 -4 -20 -10 -20 -5 0
-10 -9 -10 -19 0 -11 5 -23 10 -26 12 -8 13 -25 1 -25 -13 0 -22 44 -15 79 7
34 24 42 24 11z m307 -2 c-3 -8 -6 -5 -6 6 -1 11 2 17 5 13 3 -3 4 -12 1 -19z
m-197 2 c0 -5 -4 -10 -10 -10 -5 0 -10 5 -10 10 0 6 5 10 10 10 6 0 10 -4 10
-10z m720 -10 c0 -11 -7 -20 -15 -20 -13 0 -13 3 -3 20 7 11 14 20 15 20 2 0
3 -9 3 -20z m97 -2 c-3 -8 -6 -5 -6 6 -1 11 2 17 5 13 3 -3 4 -12 1 -19z
m-902 2 c3 -5 1 -10 -4 -10 -6 0 -11 5 -11 10 0 6 2 10 4 10 3 0 8 -4 11 -10z
m365 0 c0 -5 -4 -10 -10 -10 -5 0 -10 5 -10 10 0 6 5 10 10 10 6 0 10 -4 10
-10z m-460 -10 c0 -5 -4 -10 -10 -10 -5 0 -10 5 -10 10 0 6 5 10 10 10 6 0 10
-4 10 -10z m236 -14 c3 -14 3 -30 -1 -36 -4 -6 -1 -17 5 -25 7 -8 10 -20 7
-27 -4 -8 -8 -5 -12 10 -8 25 -25 30 -25 8 0 -8 -4 -18 -10 -21 -5 -3 -7 0 -4
8 3 8 1 18 -5 22 -6 3 -11 11 -11 18 0 8 3 8 12 -1 9 -9 14 -7 24 6 16 20 18
42 4 42 -5 0 -10 -7 -10 -15 0 -8 -4 -15 -10 -15 -6 0 -5 10 2 25 14 32 26 32
34 1z m431 -8 c-3 -7 -5 -2 -5 12 0 14 2 19 5 13 2 -7 2 -19 0 -25z m-498 8
c8 -10 9 -16 1 -21 -5 -3 -10 2 -10 12 0 15 -2 14 -15 -4 -10 -14 -13 -32 -9
-50 4 -22 3 -25 -5 -13 -13 19 -14 32 -1 64 11 29 22 33 39 12z m131 4 c0 -5
10 -10 22 -10 34 0 11 -14 -27 -16 -31 -2 -33 -1 -22 17 13 20 27 25 27 9z
m230 -5 c0 -8 -4 -15 -10 -15 -5 0 -7 7 -4 15 4 8 8 15 10 15 2 0 4 -7 4 -15z
m-453 -17 c-3 -8 -6 -5 -6 6 -1 11 2 17 5 13 3 -3 4 -12 1 -19z m300 -3 c6
-14 8 -27 4 -29 -4 -3 -12 8 -18 25 -14 35 -3 39 14 4z m23 9 c0 -8 -5 -12
-10 -9 -6 4 -8 11 -5 16 9 14 15 11 15 -7z m34 1 c3 -8 1 -15 -4 -15 -6 0 -10
7 -10 15 0 8 2 15 4 15 2 0 6 -7 10 -15z m61 6 c3 -5 1 -12 -5 -16 -5 -3 -10
1 -10 9 0 18 6 21 15 7z m90 -21 c-6 -29 8 -43 18 -17 4 8 6 6 6 -4 1 -9 -9
-24 -21 -35 -13 -10 -20 -15 -16 -10 4 5 3 17 -2 27 -7 12 -6 26 2 43 15 35
21 33 13 -4z m135 20 c5 8 9 7 13 -5 4 -9 3 -14 -2 -11 -5 3 -11 -1 -14 -8 -3
-8 -1 -16 5 -18 21 -7 -1 -43 -27 -44 -27 -2 -33 10 -12 23 17 10 30 43 17 43
-5 0 -6 8 -3 17 5 12 8 13 11 4 3 -10 6 -10 12 -1z m280 -17 c0 -13 -3 -13
-15 -3 -8 7 -15 16 -15 21 0 5 7 6 15 3 8 -4 15 -13 15 -21z m-885 7 c-3 -5
-11 -10 -16 -10 -6 0 -7 5 -4 10 3 6 11 10 16 10 6 0 7 -4 4 -10z m350 0 c3
-5 1 -10 -4 -10 -6 0 -11 5 -11 10 0 6 2 10 4 10 3 0 8 -4 11 -10z m169 4 c9
-4 14 -15 12 -28 -2 -11 -1 -15 1 -8 6 16 25 11 31 -9 3 -8 1 -11 -4 -6 -4 4
-13 -5 -20 -20 -10 -23 -13 -24 -14 -8 -1 20 -1 20 -15 1 -15 -19 -15 -19 -15
1 0 12 5 25 10 28 12 8 9 37 -5 47 -12 9 -2 10 19 2z m-692 -38 c4 -17 1 -23
-9 -19 -14 6 -18 43 -4 43 5 0 11 -11 13 -24z m573 15 c3 -5 1 -12 -5 -16 -5
-3 -10 1 -10 9 0 18 6 21 15 7z m15 -36 c-6 -15 -13 -25 -16 -22 -4 3 0 20 7
37 17 37 24 25 9 -15z m-620 31 c0 -3 -4 -8 -10 -11 -5 -3 -10 -1 -10 4 0 6 5
11 10 11 6 0 10 -2 10 -4z m172 -28 c-8 -8 -9 -4 -5 13 4 13 8 18 11 10 2 -7
-1 -18 -6 -23z m203 14 c-3 -7 -5 -18 -5 -23 0 -16 -17 -1 -22 19 -4 12 1 18
14 18 11 0 17 -5 13 -14z m71 -21 c8 7 14 7 14 1 0 -16 -31 -24 -46 -11 -7 6
-18 8 -24 4 -13 -8 -13 1 1 27 11 21 12 21 26 -6 12 -22 17 -25 29 -15z m4 29
c0 -5 -7 -10 -16 -10 -8 0 -12 5 -9 10 3 6 10 10 16 10 5 0 9 -4 9 -10z m60 0
c0 -5 -4 -10 -10 -10 -5 0 -10 5 -10 10 0 6 5 10 10 10 6 0 10 -4 10 -10z m30
0 c0 -5 -5 -10 -11 -10 -5 0 -7 5 -4 10 3 6 8 10 11 10 2 0 4 -4 4 -10z m41
-20 c5 0 9 -6 9 -14 0 -11 -5 -12 -24 -3 -20 9 -22 14 -12 29 9 16 12 16 14 3
2 -8 8 -15 13 -15z m-475 -16 c-4 -9 -9 -15 -11 -12 -3 3 -3 13 1 22 4 9 9 15
11 12 3 -3 3 -13 -1 -22z m99 6 c3 -5 1 -10 -4 -10 -6 0 -11 5 -11 10 0 6 2
10 4 10 3 0 8 -4 11 -10z m65 1 c0 -6 -4 -13 -10 -16 -5 -3 -10 1 -10 9 0 9 5
16 10 16 6 0 10 -4 10 -9z m220 -6 c0 -8 -4 -15 -10 -15 -5 0 -7 7 -4 15 4 8
8 15 10 15 2 0 4 -7 4 -15z m160 5 c0 -5 -5 -10 -11 -10 -5 0 -7 5 -4 10 3 6
8 10 11 10 2 0 4 -4 4 -10z m-130 -10 c0 -5 -5 -10 -11 -10 -5 0 -7 5 -4 10 3
6 8 10 11 10 2 0 4 -4 4 -10z m-2035 -429 c-8 -13 -45 -15 -45 -2 0 5 10 11
23 13 27 5 31 3 22 -11z m-240 -1 c3 -5 1 -10 -4 -10 -6 0 -11 5 -11 10 0 6 2
10 4 10 3 0 8 -4 11 -10z m175 0 c0 -5 -5 -10 -11 -10 -5 0 -7 5 -4 10 3 6 8
10 11 10 2 0 4 -4 4 -10z m110 2 c0 -13 -12 -22 -22 -16 -10 6 -1 24 13 24 5
0 9 -4 9 -8z m40 -21 c0 -11 -4 -23 -10 -26 -6 -4 -10 5 -10 19 0 14 5 26 10
26 6 0 10 -9 10 -19z m-207 -10 c2 -10 1 -25 -4 -32 -7 -11 -9 -11 -9 3 0 9
-3 23 -6 32 -3 9 -2 16 4 16 5 0 12 -9 15 -19z m-488 -1 c3 -5 1 -10 -4 -10
-6 0 -11 5 -11 10 0 6 2 10 4 10 3 0 8 -4 11 -10z m736 -45 c5 4 9 2 9 -4 0
-17 -17 -22 -28 -8 -6 7 -8 24 -4 38 l7 24 3 -28 c2 -15 8 -25 13 -22z m-276
26 c3 -5 1 -12 -5 -16 -5 -3 -10 1 -10 9 0 18 6 21 15 7z m195 -25 c0 -5 -7
-3 -15 4 -8 7 -12 17 -9 22 7 10 24 -9 24 -26z m-282 -11 c-3 -3 -9 2 -12 12
-6 14 -5 15 5 6 7 -7 10 -15 7 -18z m29 -7 c-3 -8 -6 -5 -6 6 -1 11 2 17 5 13
3 -3 4 -12 1 -19z m350 -90 c-3 -8 -6 -5 -6 6 -1 11 2 17 5 13 3 -3 4 -12 1
-19z m-1810 -30 c-3 -8 -6 -5 -6 6 -1 11 2 17 5 13 3 -3 4 -12 1 -19z m33 -72
c0 -2 -7 -6 -15 -10 -8 -3 -15 -1 -15 4 0 6 7 10 15 10 8 0 15 -2 15 -4z m160
0 c0 -3 -4 -8 -10 -11 -5 -3 -10 -1 -10 4 0 6 5 11 10 11 6 0 10 -2 10 -4z
m-207 -31 c-3 -9 -8 -14 -10 -11 -3 3 -2 9 2 15 9 16 15 13 8 -4z m21 -29 c-3
-9 -10 -13 -15 -10 -5 3 -3 11 4 19 15 16 19 13 11 -9z m36 9 c0 -8 -4 -15
-10 -15 -5 0 -7 -16 -5 -35 3 -20 0 -35 -5 -35 -11 0 -14 59 -4 84 8 20 24 21
24 1z m27 -7 c-3 -8 -6 -5 -6 6 -1 11 2 17 5 13 3 -3 4 -12 1 -19z m68 -39
c-7 -10 -35 -1 -35 11 0 5 9 6 20 3 11 -3 17 -9 15 -14z m-52 -16 c-7 -2 -19
-2 -25 0 -7 3 -2 5 12 5 14 0 19 -2 13 -5z m77 -7 c0 -3 -4 -8 -10 -11 -5 -3
-10 -1 -10 4 0 6 5 11 10 11 6 0 10 -2 10 -4z m-115 -36 c3 -5 1 -10 -4 -10
-6 0 -11 5 -11 10 0 6 2 10 4 10 3 0 8 -4 11 -10z m231 -65 c-6 -17 9 -21 19
-5 4 6 11 5 19 -3 16 -14 15 -24 -3 -52 -11 -18 -12 -18 -6 8 3 15 1 27 -4 27
-15 0 -22 -30 -15 -66 6 -35 -3 -43 -24 -22 -18 18 -14 2 9 -34 14 -23 19 -26
14 -10 -5 16 -2 22 9 22 9 0 16 -8 16 -17 0 -10 11 6 25 35 14 30 25 59 24 65
0 7 -11 -10 -23 -37 -13 -27 -25 -45 -28 -40 -5 8 25 89 39 104 9 10 23 -26
18 -48 -4 -15 -2 -21 5 -17 5 3 13 -1 16 -9 3 -9 11 -13 18 -9 6 3 3 -3 -7
-14 -21 -24 -6 -43 18 -23 19 16 19 10 0 -26 -18 -34 -20 -74 -4 -74 6 0 9 6
6 14 -3 8 0 20 8 26 10 8 17 6 29 -12 9 -13 16 -17 16 -9 0 8 2 12 5 9 10 -9
-7 -39 -19 -35 -14 6 -52 -20 -43 -29 4 -4 15 -1 24 7 17 13 17 13 4 -4 -11
-14 -12 -20 -2 -26 9 -6 9 -15 1 -35 -7 -19 -7 -25 0 -21 6 4 19 1 28 -6 14
-11 15 -11 6 0 -12 13 -7 51 6 51 19 0 32 -100 15 -112 -6 -5 -5 -8 3 -8 14 0
16 -36 2 -45 -6 -4 -4 -12 5 -22 14 -14 14 -17 -2 -35 -11 -13 -14 -21 -6 -26
6 -4 14 -22 18 -39 7 -33 -5 -55 -33 -60 -13 -3 -48 44 -39 53 3 3 -9 20 -26
38 -60 63 -92 101 -142 166 -27 36 -59 75 -72 87 -15 15 -24 36 -26 61 -2 37
-4 39 -25 31 -30 -12 -35 -11 -26 2 3 6 0 15 -7 20 -11 7 -10 9 4 9 9 0 17 7
17 16 0 13 -3 14 -14 5 -10 -8 -16 -9 -21 -1 -3 5 1 13 10 16 12 5 13 9 4 20
-18 22 -29 17 -30 -13 -1 -16 -5 -3 -10 27 -9 58 -3 102 11 80 6 -9 13 -8 32
4 14 9 28 13 31 9 4 -3 7 -1 7 6 0 7 5 9 10 6 6 -3 10 -1 10 6 0 10 3 10 11 2
8 -8 8 -16 0 -30 -6 -10 -11 -12 -11 -5 0 27 -19 10 -26 -23 -3 -19 -10 -32
-15 -29 -13 8 -11 -10 4 -28 8 -11 19 -13 37 -8 25 8 25 8 -4 9 -21 1 -27 5
-22 17 3 9 6 22 6 31 0 9 6 13 15 10 8 -4 17 -1 21 4 4 6 16 1 31 -13 l25 -23
-7 25 c-4 14 -12 27 -16 28 -13 5 -11 42 2 42 5 0 8 -4 5 -9 -3 -4 3 -26 14
-47 16 -31 19 -33 14 -11 -4 17 -2 27 5 27 6 0 11 5 11 11 0 8 -5 8 -15 -1
-18 -15 -21 1 -5 31 13 22 25 26 16 4z m164 -55 c0 -5 -4 -10 -10 -10 -5 0
-10 5 -10 10 0 6 5 10 10 10 6 0 10 -4 10 -10z m-43 -22 c-3 -8 -6 -5 -6 6 -1
11 2 17 5 13 3 -3 4 -12 1 -19z m2958 -31 c12 -26 15 -60 13 -148 l-3 -114
-105 0 c-58 0 -113 1 -123 4 -27 6 -53 49 -38 64 6 6 11 18 11 26 0 32 54 118
88 141 55 37 79 48 109 53 16 2 29 5 30 6 1 0 9 -14 18 -32z m165 -2 c69 -35
160 -159 160 -217 0 -10 4 -18 10 -18 5 0 7 -7 4 -15 -5 -13 -28 -15 -130 -14
-124 1 -124 1 -138 27 -9 17 -12 52 -11 97 2 39 4 93 4 121 l1 52 33 -7 c17
-5 48 -16 67 -26z m-3030 -165 c0 -5 -2 -10 -4 -10 -3 0 -8 5 -11 10 -3 6 -1
10 4 10 6 0 11 -4 11 -10z m2840 -129 c3 -1 12 -11 20 -23 10 -17 15 -59 16
-150 l2 -128 -27 6 c-123 29 -210 124 -247 268 -5 21 -2 25 23 28 22 2 193 2
213 -1z m344 -26 c15 -23 12 -95 -4 -95 -4 0 -11 -11 -14 -25 -4 -14 -11 -25
-16 -25 -6 0 -10 -5 -10 -11 0 -28 -86 -89 -151 -107 -31 -8 -39 -7 -52 8 -8
10 -13 21 -10 24 4 3 2 6 -3 6 -9 0 -9 198 0 235 5 19 12 20 125 17 113 -3
120 -5 135 -27z m1046 -214 c0 -5 -6 -12 -12 -14 -8 -4 -7 -6 4 -6 9 -1 19 5
22 12 3 8 8 7 16 -6 6 -9 16 -14 22 -11 7 4 8 2 4 -4 -4 -7 -2 -12 4 -12 7 0
9 -7 6 -16 -4 -12 -2 -15 9 -10 20 7 19 -8 -1 -29 -13 -12 -14 -19 -5 -28 8
-8 11 -7 11 5 0 24 23 28 48 8 15 -12 20 -24 15 -36 -5 -13 -3 -16 10 -11 12
4 14 2 10 -10 -5 -12 -2 -15 8 -11 9 3 25 -5 38 -18 23 -24 23 -24 2 -24 -12
0 -21 -5 -21 -12 0 -6 -3 -8 -6 -5 -4 3 -15 2 -25 -4 -16 -8 -19 -6 -19 10 0
14 -5 19 -14 15 -10 -4 -18 7 -27 37 -7 23 -15 36 -17 28 -3 -8 -11 -22 -20
-31 -12 -15 -13 -20 -1 -35 12 -17 12 -17 -5 -1 -17 15 -17 18 -2 39 21 31 20
42 -2 37 -12 -4 -24 3 -32 16 -12 19 -12 20 3 7 15 -12 17 -11 17 3 0 12 -7
17 -22 16 -38 -3 -49 -1 -47 13 1 6 -1 20 -6 30 -6 15 -10 16 -16 5 -6 -9 -8
-6 -6 10 1 14 6 21 15 17 8 -3 10 0 6 6 -4 6 0 15 7 20 18 11 29 11 29 0z
m-2126 -67 c3 -8 2 -13 -2 -10 -4 2 -14 -10 -22 -27 -13 -29 -15 -30 -18 -10
-2 17 17 52 34 62 1 1 5 -6 8 -15z m76 -30 c0 -3 -7 -1 -15 6 -8 7 -15 17 -15
22 0 5 7 3 15 -6 8 -8 15 -18 15 -22z m40 26 c0 -5 -5 -10 -11 -10 -5 0 -7 5
-4 10 3 6 8 10 11 10 2 0 4 -4 4 -10z m-85 -20 c3 -5 1 -10 -4 -10 -6 0 -11 5
-11 10 0 6 2 10 4 10 3 0 8 -4 11 -10z m99 -14 c-3 -9 -10 -16 -15 -16 -6 0
-5 9 1 21 13 24 24 20 14 -5z m102 9 c12 -11 12 -19 4 -35 -7 -13 -7 -20 0
-20 5 0 10 5 10 10 0 6 5 10 10 10 6 0 10 -7 10 -15 0 -8 -4 -15 -10 -15 -5 0
-10 -4 -10 -10 0 -5 8 -10 19 -10 23 0 45 -25 38 -42 -4 -8 -6 -7 -6 4 -1 9
-5 20 -11 23 -7 4 -7 -3 0 -20 7 -18 7 -33 -1 -47 -6 -11 -7 -18 -2 -15 4 3
17 22 27 42 17 31 18 40 7 57 -7 11 -10 23 -7 26 3 3 6 0 6 -6 0 -6 9 -14 20
-17 16 -5 19 -12 13 -33 -3 -15 -10 -29 -14 -32 -4 -3 -4 -12 2 -20 8 -13 10
-13 20 0 8 12 9 10 4 -8 -4 -14 -1 -28 9 -38 15 -14 16 -14 16 2 0 10 2 15 5
12 4 -3 3 -17 -1 -32 -7 -29 -40 -36 -63 -13 -8 6 -11 7 -8 1 3 -6 0 -11 -8
-11 -19 0 -19 2 1 33 9 13 14 27 10 31 -3 3 -6 1 -6 -6 0 -7 -4 -10 -9 -6 -5
3 -12 1 -16 -4 -3 -7 -15 -7 -29 -1 -13 5 -26 7 -28 5 -2 -2 -5 8 -6 22 -1 14
-7 32 -12 39 -8 8 -8 14 0 19 5 3 10 1 10 -5 0 -6 5 -8 10 -5 7 4 8 11 1 18
-5 7 -9 16 -9 20 0 5 -3 11 -6 15 -3 3 -6 -2 -6 -11 0 -9 -4 -17 -10 -17 -5 0
-10 10 -10 23 -1 22 -1 22 -16 2 -14 -19 -15 -17 -9 28 6 36 4 47 -6 48 -8 1
0 5 16 9 17 4 31 8 33 9 2 0 10 -6 18 -14z m-128 -32 c1 -22 0 -24 -8 -13 -12
18 -13 40 -2 40 4 0 9 -12 10 -27z m2018 2 c20 -19 4 -20 -22 0 -12 9 -14 14
-6 15 7 0 20 -7 28 -15z m-576 -35 c0 -5 -4 -10 -10 -10 -5 0 -10 5 -10 10 0
6 5 10 10 10 6 0 10 -4 10 -10z m667 -27 c-4 -3 -2 -12 5 -20 8 -11 7 -12 -6
-7 -9 3 -16 9 -16 13 0 9 11 21 18 21 3 0 2 -3 -1 -7z m-467 -23 c0 -5 -2 -10
-4 -10 -3 0 -8 5 -11 10 -3 6 -1 10 4 10 6 0 11 -4 11 -10z m-421 -74 c-9 -8
-10 -7 -5 7 3 10 7 26 7 35 1 9 4 6 6 -7 3 -13 -1 -28 -8 -35z m-1109 34 c0
-5 -5 -10 -11 -10 -5 0 -7 5 -4 10 3 6 8 10 11 10 2 0 4 -4 4 -10z m-1644 -30
c24 -21 65 -22 80 -3 11 15 13 16 14 2 0 -25 71 -20 87 6 7 11 12 15 13 8 0
-8 9 -9 30 -3 18 5 32 5 36 -1 4 -6 11 -6 19 1 8 7 15 7 19 1 3 -5 15 -7 26
-4 14 4 20 0 20 -11 0 -26 56 -24 78 2 12 15 12 14 6 -7 -5 -18 -3 -22 7 -15
8 4 28 7 46 5 26 -2 33 1 34 16 1 16 2 17 6 1 6 -25 22 -22 34 5 8 19 9 18 4
-7 -6 -26 -4 -28 9 -17 12 10 16 11 16 1 0 -7 6 -10 14 -7 8 3 56 -15 106 -40
112 -56 185 -126 226 -213 15 -33 33 -59 38 -57 14 6 9 -224 -5 -237 -5 -6 -9
-16 -9 -24 0 -18 -42 -106 -52 -110 -17 -8 -6 -36 31 -80 51 -62 86 -134 105
-216 18 -76 21 -182 6 -191 -5 -3 -10 -17 -10 -30 0 -29 -40 -125 -52 -125 -4
0 -8 -6 -8 -13 0 -24 -131 -147 -157 -147 -7 0 -13 -4 -13 -9 0 -7 -36 -22
-62 -25 -3 -1 -10 -4 -14 -8 -4 -5 -15 -8 -24 -8 -10 0 -23 -7 -30 -15 -7 -9
-19 -14 -27 -11 -7 3 -13 2 -13 -2 0 -11 -550 1 -647 14 -82 10 -122 65 -130
180 -3 41 -9 76 -12 78 -4 3 -54 6 -113 7 -59 2 -105 5 -103 7 5 5 -45 52 -56
52 -6 0 -7 5 -4 10 13 20 -14 9 -29 -12 -9 -12 -18 -19 -21 -16 -3 3 1 13 10
22 10 9 14 23 11 31 -3 8 -1 15 4 15 6 0 10 8 10 17 0 15 -2 14 -19 -3 -10
-10 -16 -26 -13 -34 5 -13 3 -13 -11 -1 -11 9 -17 10 -17 2 0 -22 -18 -11 -22
14 -4 19 -2 23 7 15 19 -16 63 25 71 66 9 46 68 107 95 99 14 -5 19 -2 19 12
0 14 2 15 9 5 7 -11 12 -12 29 -1 16 10 23 10 35 0 12 -9 16 -9 20 1 4 10 8
10 16 -2 10 -13 14 -11 33 10 20 24 20 24 14 3 -6 -17 -3 -23 8 -23 9 0 16 6
16 13 0 9 2 9 8 -1 5 -7 34 -13 78 -13 126 -3 184 -68 184 -207 0 -69 4 -77
32 -73 3 0 106 1 227 1 220 1 221 1 222 23 1 18 2 19 6 4 3 -10 10 -16 16 -13
7 3 31 10 55 17 80 22 138 132 117 225 -23 101 -64 138 -175 154 -92 14 -160
48 -160 79 0 6 -4 11 -9 11 -4 0 -12 19 -18 43 -11 50 11 124 39 133 10 3 18
9 18 14 0 11 49 23 83 21 16 -2 29 3 33 12 3 9 13 13 25 10 10 -3 19 -1 19 5
0 5 11 12 24 16 28 7 61 84 52 120 -6 24 -43 76 -54 76 -4 0 -7 -23 -7 -52 -1
-31 -6 -53 -13 -56 -7 -2 -10 -8 -6 -13 3 -5 0 -9 -7 -9 -7 0 -9 8 -6 21 4 14
2 17 -6 11 -19 -15 -85 -21 -91 -8 -3 7 -8 6 -15 -4 -9 -12 -11 -10 -11 10
l-1 25 -15 -25 c-11 -18 -14 -19 -9 -5 5 16 4 18 -6 8 -18 -18 -29 -16 -30 5
0 14 -2 14 -9 -3 -7 -17 -9 -17 -9 -3 -1 11 -6 15 -16 12 -8 -4 -16 -2 -16 2
-7 46 -5 54 12 54 11 0 19 5 19 11 0 6 -7 9 -15 5 -9 -3 -15 0 -15 9 0 8 7 15
15 15 24 0 17 18 -7 19 -13 0 -97 2 -188 5 l-165 5 -45 -60 c-47 -62 -61 -79
-123 -148 -20 -24 -53 -66 -72 -94 -19 -29 -46 -65 -60 -81 -14 -16 -25 -35
-25 -43 0 -8 -4 -12 -8 -9 -5 3 -21 -15 -37 -39 -15 -25 -34 -50 -41 -56 -8
-6 -11 -16 -7 -22 3 -5 1 -7 -4 -4 -6 4 -21 -9 -34 -28 -13 -19 -27 -35 -31
-35 -5 0 -8 -7 -8 -15 0 -8 -4 -15 -9 -15 -5 0 -14 -14 -21 -31 -7 -17 -16
-26 -19 -21 -3 6 -15 -7 -25 -29 -11 -21 -27 -41 -38 -44 -10 -4 -18 -10 -18
-15 0 -5 -21 -32 -47 -60 -26 -28 -54 -62 -62 -74 -21 -32 -67 -90 -118 -152
-24 -28 -43 -54 -43 -58 0 -4 -15 -23 -32 -41 -18 -18 -44 -45 -57 -59 -28
-32 -93 -36 -140 -9 -71 42 -94 151 -43 216 44 58 123 159 154 197 16 19 33
41 39 48 26 32 199 265 234 315 50 71 177 231 187 235 5 2 8 8 8 14 0 6 15 27
33 48 17 21 43 52 57 70 14 19 30 38 35 44 6 6 44 55 84 109 41 54 83 106 95
115 35 29 60 86 47 110 -8 15 -7 23 4 32 8 7 15 10 15 7 0 -3 12 -2 28 2 33 9
81 5 98 -9z m599 10 c3 -5 1 -10 -4 -10 -6 0 -11 5 -11 10 0 6 2 10 4 10 3 0
8 -4 11 -10z m30 0 c3 -5 1 -10 -4 -10 -6 0 -11 5 -11 10 0 6 2 10 4 10 3 0 8
-4 11 -10z m1325 -60 c0 -5 -4 -10 -10 -10 -5 0 -10 5 -10 10 0 6 5 10 10 10
6 0 10 -4 10 -10z m-43 -22 c-3 -8 -6 -5 -6 6 -1 11 2 17 5 13 3 -3 4 -12 1
-19z m53 -2 c0 -3 -4 -8 -10 -11 -5 -3 -10 -1 -10 4 0 6 5 11 10 11 6 0 10 -2
10 -4z m-190 -22 c0 -8 -5 -12 -10 -9 -6 4 -8 11 -5 16 9 14 15 11 15 -7z
m176 -41 c1 -13 -1 -21 -6 -18 -5 3 -10 0 -12 -7 -3 -7 -7 -5 -11 6 -4 9 -3
15 2 11 5 -3 12 -1 15 4 8 13 -4 42 -15 35 -5 -3 -6 2 -2 12 5 15 7 15 16 -2
6 -10 11 -28 13 -41z m-121 37 c3 -5 1 -10 -4 -10 -6 0 -11 5 -11 10 0 6 2 10
4 10 3 0 8 -4 11 -10z m-2805 -20 c0 -11 5 -20 12 -20 9 0 9 -3 1 -11 -6 -6
-9 -17 -7 -23 2 -6 -7 -12 -22 -12 -25 -2 -25 -2 -5 12 17 12 19 19 11 40 -12
32 -12 34 0 34 6 0 10 -9 10 -20z m-30 -30 c0 -5 -5 -10 -11 -10 -5 0 -7 5 -4
10 3 6 8 10 11 10 2 0 4 -4 4 -10z m63 -72 c3 -10 1 -18 -4 -18 -5 0 -9 5 -9
10 0 6 -7 10 -15 10 -8 0 -15 4 -15 9 0 17 39 7 43 -11z m2904 -90 c-3 -7 -5
-2 -5 12 0 14 2 19 5 13 2 -7 2 -19 0 -25z m24 -5 c-12 -20 -14 -14 -5 12 4 9
9 14 11 11 3 -2 0 -13 -6 -23z m543 -47 c-6 -15 -24 -23 -24 -11 0 8 24 34 28
30 1 -1 0 -10 -4 -19z m-1460 -1 c-4 -8 -11 -15 -16 -15 -6 0 -5 6 2 15 7 8
14 15 16 15 2 0 1 -7 -2 -15z m1516 -26 c0 -6 -4 -7 -10 -4 -5 3 -10 11 -10
16 0 6 5 7 10 4 6 -3 10 -11 10 -16z m17 -11 c-3 -7 -5 -2 -5 12 0 14 2 19 5
13 2 -7 2 -19 0 -25z m-273 -30 c4 -17 2 -28 -4 -28 -5 0 -10 14 -10 32 0 36
4 35 14 -4z m-1208 -25 c-3 -3 -12 -1 -19 5 -8 7 -17 9 -20 5 -4 -3 -7 -1 -7
5 0 5 6 12 12 14 15 5 44 -20 34 -29z m1244 8 c0 -10 -7 -21 -15 -24 -12 -5
-12 -2 -3 18 13 30 18 31 18 6z m97 -6 c-4 -8 -12 -15 -19 -14 -10 0 -10 2 0
6 6 2 12 12 12 21 0 8 3 13 6 9 4 -3 4 -13 1 -22z m-1302 5 c3 -5 1 -10 -4
-10 -6 0 -11 5 -11 10 0 6 2 10 4 10 3 0 8 -4 11 -10z m1405 0 c0 -5 -4 -10
-10 -10 -5 0 -10 5 -10 10 0 6 5 10 10 10 6 0 10 -4 10 -10z m-595 -40 c3 -5
1 -10 -4 -10 -6 0 -11 5 -11 10 0 6 2 10 4 10 3 0 8 -4 11 -10z m395 -14 c0
-3 -4 -8 -10 -11 -5 -3 -10 -1 -10 4 0 6 5 11 10 11 6 0 10 -2 10 -4z m57 -22
c13 -12 13 -18 3 -27 -7 -7 -10 -7 -7 -2 3 6 -3 16 -14 23 -14 9 -19 9 -19 0
0 -6 -3 -9 -6 -5 -8 8 4 27 17 27 6 0 17 -7 26 -16z m-327 -30 c0 -8 -4 -12
-10 -9 -5 3 -10 10 -10 16 0 5 5 9 10 9 6 0 10 -7 10 -16z m-52 -19 c-3 -3 -9
2 -12 12 -6 14 -5 15 5 6 7 -7 10 -15 7 -18z m173 -5 c5 0 9 -4 9 -10 0 -5 -6
-10 -14 -10 -8 0 -17 -8 -19 -17 -3 -12 -5 -8 -6 9 0 14 2 35 6 45 7 17 8 17
11 1 2 -10 8 -18 13 -18z m129 20 c0 -5 -2 -10 -4 -10 -3 0 -8 5 -11 10 -3 6
-1 10 4 10 6 0 11 -4 11 -10z m39 -32 c1 -5 -9 -8 -21 -7 -13 0 -17 3 -10 6 6
2 12 14 13 26 0 21 1 21 9 2 5 -11 9 -23 9 -27z m-362 -20 c-3 -8 -6 -5 -6 6
-1 11 2 17 5 13 3 -3 4 -12 1 -19z m108 12 c3 -5 1 -10 -4 -10 -6 0 -11 5 -11
10 0 6 2 10 4 10 3 0 8 -4 11 -10z m302 -6 c3 -8 1 -20 -6 -27 -8 -8 -11 -8
-11 0 0 6 -3 18 -6 27 -3 9 -1 16 5 16 7 0 14 -7 18 -16z m-151 -16 c3 -20
-22 -13 -30 8 -4 11 -1 14 11 12 9 -2 17 -11 19 -20z m-196 -8 c0 -5 -4 -10
-10 -10 -5 0 -10 5 -10 10 0 6 5 10 10 10 6 0 10 -4 10 -10z m44 -6 c9 -3 16
-10 16 -14 0 -10 -38 -1 -46 11 -6 10 7 12 30 3z m86 -8 c0 -2 -7 -6 -15 -10
-8 -3 -15 -1 -15 4 0 6 7 10 15 10 8 0 15 -2 15 -4z m-200 -16 c0 -5 -4 -10
-10 -10 -5 0 -10 5 -10 10 0 6 5 10 10 10 6 0 10 -4 10 -10z m-22 -35 c-3 -3
-9 2 -12 12 -6 14 -5 15 5 6 7 -7 10 -15 7 -18z m-1597 -8 c-10 -9 -11 -8 -5
6 3 10 9 15 12 12 3 -3 0 -11 -7 -18z m-347 -142 c-4 -8 -1 -15 5 -15 6 0 11
5 11 11 0 5 5 7 11 3 8 -5 6 -10 -6 -16 -20 -12 -41 4 -31 21 10 16 16 13 10
-4z m51 -25 c-3 -5 -12 -10 -18 -10 -7 0 -6 4 3 10 19 12 23 12 15 0z m1155
-49 c4 -17 5 -33 0 -36 -4 -2 -6 -26 -4 -52 l4 -48 -16 45 c-9 29 -13 61 -9
88 7 49 11 49 25 3z m-1183 -3 c-3 -8 -6 -5 -6 6 -1 11 2 17 5 13 3 -3 4 -12
1 -19z m1978 -17 c3 -5 1 -12 -5 -16 -5 -3 -10 1 -10 9 0 18 6 21 15 7z m-78
-23 c-3 -8 -6 -5 -6 6 -1 11 2 17 5 13 3 -3 4 -12 1 -19z m-2267 -22 c0 -3 -4
-8 -10 -11 -5 -3 -10 -1 -10 4 0 6 5 11 10 11 6 0 10 -2 10 -4z m2284 -31 c-4
-8 -8 -15 -10 -15 -2 0 -4 7 -4 15 0 8 4 15 10 15 5 0 7 -7 4 -15z m37 -10
c19 12 8 -13 -13 -31 -13 -11 -17 -12 -11 -3 7 8 11 24 9 35 -2 10 -1 13 1 6
3 -7 9 -10 14 -7z m-2508 -133 c-3 -12 -9 -22 -14 -22 -5 0 -3 11 3 25 13 30
20 28 11 -3z m-82 -72 c5 0 9 7 9 15 0 30 19 14 26 -21 7 -36 7 -36 19 -14 7
13 15 18 19 12 3 -6 0 -12 -6 -15 -10 -3 -10 -8 1 -21 13 -15 13 -19 1 -26
-20 -12 -28 -1 -10 11 13 9 13 10 0 6 -8 -2 -17 -12 -19 -23 -2 -10 -10 -28
-18 -39 -16 -21 -16 -21 3 33 4 9 -8 1 -25 -18 -22 -24 -28 -28 -21 -12 6 12
8 28 4 34 -5 8 -10 5 -15 -8 -5 -13 -7 -8 -6 17 2 34 3 35 23 23 19 -13 22
-12 34 11 7 14 11 28 8 31 -4 3 -9 -4 -13 -16 -11 -33 -30 -18 -32 26 0 21 1
29 4 17 2 -13 9 -23 14 -23z m90 -83 c-10 -9 -11 -8 -5 6 3 10 9 15 12 12 3
-3 0 -11 -7 -18z m1086 -309 c-3 -8 -6 -5 -6 6 -1 11 2 17 5 13 3 -3 4 -12 1
-19z m-123 -183 l20 -38 -23 -19 c-22 -17 -22 -20 -8 -42 25 -38 19 -236 -7
-236 -27 0 -39 46 -42 157 -2 92 0 113 12 113 11 0 9 7 -6 33 -24 39 -24 41
-4 62 22 22 34 16 58 -30z m-676 10 c7 -15 12 -74 12 -135 0 -100 2 -112 25
-146 32 -46 32 -64 1 -64 -25 0 -49 18 -66 50 -12 22 -26 280 -17 304 9 24 32
19 45 -9z m330 0 c7 -14 12 -34 12 -44 0 -10 9 -25 20 -32 12 -8 22 -27 23
-44 2 -24 -2 -31 -21 -33 -21 -3 -23 -8 -20 -60 3 -57 3 -57 33 -54 26 2 32
-2 42 -29 11 -28 10 -34 -5 -45 -18 -14 -68 -10 -88 7 -24 20 -44 78 -44 128
0 28 -4 51 -10 51 -5 0 -17 14 -26 32 -15 30 -15 32 2 45 10 7 21 13 26 13 4
0 8 17 8 38 0 58 27 73 48 27z m1089 3 c-3 -8 -6 -5 -6 6 -1 11 2 17 5 13 3
-3 4 -12 1 -19z m279 -25 c-10 -10 -19 5 -10 18 6 11 8 11 12 0 2 -7 1 -15 -2
-18z m-2510 -65 c7 -5 23 -2 40 7 38 20 53 19 91 -5 52 -31 64 -66 61 -178
l-3 -97 -22 23 c-17 16 -23 35 -24 70 -2 88 -10 107 -46 108 -25 1 -33 -4 -37
-21 -6 -23 18 -109 37 -133 5 -7 7 -15 3 -19 -3 -3 -6 -1 -6 6 0 8 -6 11 -16
7 -8 -3 -12 -2 -9 4 3 6 1 10 -4 10 -6 0 -11 -9 -11 -20 0 -27 -16 -25 -36 5
-15 23 -18 40 -22 132 -2 25 -7 32 -24 35 -41 6 -58 -26 -56 -103 2 -79 -12
-104 -35 -68 -11 16 -16 54 -18 114 -3 140 -5 133 44 137 47 3 77 -1 93 -14z
m2525 8 c16 9 55 -22 69 -56 15 -37 8 -47 -24 -32 -35 16 -56 -9 -46 -54 4
-19 5 -34 0 -34 -4 0 -6 -22 -4 -50 3 -61 -10 -71 -44 -35 -23 25 -25 35 -26
122 -1 52 2 97 6 99 4 3 5 10 2 17 -5 14 49 38 54 25 2 -5 8 -5 13 -2z m-2097
-27 c7 -17 14 -58 15 -92 1 -34 3 -63 5 -64 1 -1 13 -4 26 -5 34 -4 50 33 50
114 0 67 6 83 27 70 23 -14 33 -64 28 -140 -6 -86 -28 -122 -76 -122 -77 0
-112 49 -116 165 -1 44 -1 86 2 93 8 21 26 13 39 -19z m1353 16 c12 -3 25 -18
32 -36 15 -43 15 -42 -21 -35 l-33 6 31 -19 c28 -17 64 -73 64 -101 0 -7 -9
-25 -21 -41 -17 -24 -27 -29 -62 -29 -36 0 -45 5 -64 33 -37 53 -29 84 13 52
25 -19 48 -19 64 0 11 13 7 18 -28 32 -30 11 -44 24 -51 46 -26 74 3 109 76
92z m571 -211 c-4 -3 -12 5 -18 18 -12 22 -12 22 6 6 10 -10 15 -20 12 -24z
m-31 -6 c-3 -8 -6 -5 -6 6 -1 11 2 17 5 13 3 -3 4 -12 1 -19z m307 -140 c-4
-6 -10 -5 -15 3 -7 12 -9 12 -9 0 0 -8 -3 -12 -6 -8 -10 10 6 26 21 21 8 -4
12 -11 9 -16z m116 6 c0 -14 -3 -14 -15 -4 -11 9 -15 9 -15 1 0 -7 -5 -9 -10
-6 -15 9 -2 25 21 25 11 0 19 -7 19 -16z m38 -2 c6 -18 -15 -14 -22 4 -4 10
-1 14 6 12 6 -2 14 -10 16 -16z m-872 -5 c3 -3 3 -11 -1 -17 -5 -8 -10 -9 -18
-1 -7 7 -14 5 -23 -7 -12 -16 -13 -16 -14 3 0 15 -2 17 -9 7 -7 -11 -9 -11
-14 2 -3 8 -1 16 6 19 16 5 66 1 73 -6z m-215 -20 c-10 -9 -11 -8 -5 6 3 10 9
15 12 12 3 -3 0 -11 -7 -18z m34 14 c3 -5 1 -12 -5 -16 -5 -3 -10 1 -10 9 0
18 6 21 15 7z m27 -13 c-7 -7 -12 -8 -12 -2 0 14 12 26 19 19 2 -3 -1 -11 -7
-17z m48 18 c0 -2 -6 -9 -13 -15 -10 -8 -14 -7 -14 4 0 8 6 15 14 15 7 0 13
-2 13 -4z m245 -5 c3 -5 1 -12 -5 -16 -5 -3 -10 -2 -10 4 0 5 -15 8 -34 7 -19
-2 -40 1 -48 5 -8 5 7 9 39 9 28 0 54 -4 58 -9z"/>
<path d="M3290 4745 c0 -8 5 -15 10 -15 6 0 10 7 10 15 0 8 -4 15 -10 15 -5 0
-10 -7 -10 -15z"/>
<path d="M131 3694 c0 -11 3 -14 6 -6 3 7 2 16 -1 19 -3 4 -6 -2 -5 -13z"/>
<path d="M250 3680 c0 -5 5 -10 11 -10 5 0 7 5 4 10 -3 6 -8 10 -11 10 -2 0
-4 -4 -4 -10z"/>
<path d="M140 3659 c0 -5 5 -7 10 -4 6 3 10 8 10 11 0 2 -4 4 -10 4 -5 0 -10
-5 -10 -11z"/>
<path d="M270 3639 c7 -11 9 -33 6 -47 -5 -21 -4 -24 5 -12 8 12 9 7 5 -20
l-5 -35 15 29 c12 20 13 31 5 36 -6 3 -13 21 -14 38 -1 18 -8 32 -15 32 -10 0
-10 -5 -2 -21z"/>
<path d="M220 3600 c0 -5 10 -10 23 -10 18 0 19 2 7 10 -19 13 -30 13 -30 0z"/>
<path d="M380 3605 c0 -19 15 -30 43 -30 15 -1 26 4 24 10 -3 5 -15 9 -27 7
-13 -1 -27 3 -32 10 -4 7 -8 9 -8 3z"/>
<path d="M240 3545 c0 -5 5 -17 10 -25 5 -8 10 -10 10 -5 0 6 -5 17 -10 25 -5
8 -10 11 -10 5z"/>
<path d="M307 3535 c-4 -8 -2 -17 3 -20 6 -4 10 3 10 14 0 25 -6 27 -13 6z"/>
<path d="M346 3525 c-3 -8 -1 -15 4 -15 6 0 10 7 10 15 0 8 -2 15 -4 15 -2 0
-6 -7 -10 -15z"/>
<path d="M285 3500 c-3 -5 -1 -10 4 -10 6 0 11 5 11 10 0 6 -2 10 -4 10 -3 0
-8 -4 -11 -10z"/>
<path d="M313 3438 c-16 -27 -11 -37 17 -35 29 2 32 17 3 17 -9 0 -13 6 -9 15
7 18 0 20 -11 3z"/>
<path d="M435 3410 c-3 -5 -1 -10 4 -10 6 0 11 5 11 10 0 6 -2 10 -4 10 -3 0
-8 -4 -11 -10z"/>
<path d="M4768 3043 c7 -3 16 -2 19 1 4 3 -2 6 -13 5 -11 0 -14 -3 -6 -6z"/>
<path d="M2911 2898 c0 -10 -6 -18 -12 -18 -5 0 -7 -5 -3 -11 10 -16 27 5 21
27 -4 17 -5 17 -6 2z"/>
<path d="M2980 2813 c0 -6 8 -17 18 -24 16 -13 16 -13 2 6 -8 11 -16 22 -17
24 -2 2 -3 0 -3 -6z"/>
<path d="M1660 2511 c0 -4 11 -6 25 -3 14 2 25 6 25 8 0 2 -11 4 -25 4 -14 0
-25 -4 -25 -9z"/>
<path d="M1820 2495 c-7 -9 -11 -18 -8 -20 3 -3 11 1 18 10 7 9 11 18 8 20 -3
3 -11 -1 -18 -10z"/>
<path d="M1705 2470 c-3 -5 -1 -10 4 -10 6 0 11 5 11 10 0 6 -2 10 -4 10 -3 0
-8 -4 -11 -10z"/>
<path d="M1741 2454 c0 -11 3 -14 6 -6 3 7 2 16 -1 19 -3 4 -6 -2 -5 -13z"/>
<path d="M1855 2420 c-3 -5 -1 -10 4 -10 6 0 11 5 11 10 0 6 -2 10 -4 10 -3 0
-8 -4 -11 -10z"/>
<path d="M4490 4781 c0 -11 -5 -21 -12 -23 -7 -3 -9 -12 -4 -24 6 -16 10 -13
22 21 17 48 16 45 4 45 -5 0 -10 -9 -10 -19z"/>
<path d="M4216 4754 c-10 -25 -7 -41 4 -24 9 13 11 13 21 0 9 -13 10 -12 5 3
-3 10 -6 23 -6 28 0 15 -17 10 -24 -7z"/>
<path d="M4375 4747 c-4 -10 -5 -21 -1 -24 10 -10 18 4 13 24 -4 17 -4 17 -12
0z"/>
<path d="M4428 4725 c-3 -14 -1 -25 3 -25 5 0 9 11 9 25 0 14 -2 25 -4 25 -2
0 -6 -11 -8 -25z"/>
<path d="M0 3886 c0 -22 11 -46 21 -46 5 0 9 7 9 15 0 8 -5 15 -11 15 -6 0 -9
7 -5 15 3 8 1 15 -4 15 -6 0 -10 -6 -10 -14z"/>
<path d="M4075 2930 c-3 -5 -1 -10 4 -10 6 0 11 5 11 10 0 6 -2 10 -4 10 -3 0
-8 -4 -11 -10z"/>
<path d="M4200 2929 c0 -5 5 -7 10 -4 6 3 10 8 10 11 0 2 -4 4 -10 4 -5 0 -10
-5 -10 -11z"/>
<path d="M4042 2890 c0 -14 2 -19 5 -12 2 6 2 18 0 25 -3 6 -5 1 -5 -13z"/>
<path d="M4370 2870 c0 -5 5 -10 11 -10 5 0 7 5 4 10 -3 6 -8 10 -11 10 -2 0
-4 -4 -4 -10z"/>
<path d="M4443 2850 c-1 -11 2 -18 8 -15 9 6 13 -20 9 -64 -1 -16 2 -21 11
-15 9 5 10 2 5 -12 -16 -41 -23 -636 -8 -675 6 -16 21 -29 37 -33 15 -4 33
-12 39 -19 25 -25 55 -75 50 -80 -3 -3 -2 -11 2 -19 4 -7 8 -39 9 -72 1 -36 6
-61 13 -64 7 -2 12 -11 12 -20 0 -13 4 -12 23 6 16 15 26 18 39 11 23 -13 27
13 32 231 3 102 8 266 12 366 4 100 4 193 0 207 -7 30 -255 287 -277 287 -8 0
-15 -9 -16 -20z"/>
<path d="M225 2830 c-3 -5 -1 -10 4 -10 6 0 11 5 11 10 0 6 -2 10 -4 10 -3 0
-8 -4 -11 -10z"/>
<path d="M271 2814 c0 -11 3 -14 6 -6 3 7 2 16 -1 19 -3 4 -6 -2 -5 -13z"/>
<path d="M4410 2821 c0 -6 4 -13 10 -16 6 -3 7 1 4 9 -7 18 -14 21 -14 7z"/>
<path d="M411 2801 c-10 -17 -9 -21 3 -21 20 0 31 19 18 32 -7 7 -14 3 -21
-11z"/>
<path d="M370 2797 c0 -9 5 -17 12 -17 9 0 9 -3 0 -12 -14 -14 -16 -52 -2 -43
7 4 7 -3 0 -19 -7 -20 -6 -26 4 -26 8 0 16 6 18 12 6 17 33 -10 33 -32 0 -21
36 -24 60 -6 17 14 18 17 5 26 -12 9 -10 10 8 5 13 -4 22 -2 22 4 0 6 -12 12
-27 12 -24 2 -25 2 -5 6 12 2 22 9 22 15 0 5 -7 8 -15 4 -8 -3 -15 -1 -15 4 0
6 5 10 11 10 5 0 7 5 4 10 -3 6 2 10 12 10 17 1 17 1 0 11 -10 6 -24 8 -31 6
-8 -3 -17 -2 -22 3 -5 5 -20 0 -33 -11 -20 -17 -22 -21 -10 -36 12 -14 12 -16
-1 -11 -8 2 -17 19 -21 37 -8 38 -29 66 -29 38z m100 -38 c0 -5 4 -8 9 -5 5 4
6 -5 2 -21 -4 -16 -12 -27 -17 -26 -11 3 -14 63 -3 63 5 0 9 -5 9 -11z m10
-79 c0 -5 -4 -10 -9 -10 -6 0 -13 5 -16 10 -3 6 1 10 9 10 9 0 16 -4 16 -10z"/>
<path d="M4991 2758 c0 -10 -6 -18 -11 -18 -6 0 -1 -19 11 -41 20 -41 21 -49
14 -319 -5 -199 -4 -279 4 -284 6 -4 11 -1 12 6 0 7 5 2 10 -11 6 -15 14 -21
25 -17 9 3 20 6 25 6 5 0 9 116 9 279 l0 280 -25 19 c-14 11 -25 27 -25 35 0
8 -7 18 -16 21 -10 4 -13 13 -9 28 5 17 4 19 -3 9 -8 -11 -11 -10 -15 5 -4 16
-5 17 -6 2z"/>
<path d="M310 2654 c0 -8 5 -12 10 -9 6 3 10 10 10 16 0 5 -4 9 -10 9 -5 0
-10 -7 -10 -16z"/>
<path d="M400 2660 c0 -5 5 -10 10 -10 6 0 10 5 10 10 0 6 -4 10 -10 10 -5 0
-10 -4 -10 -10z"/>
<path d="M430 2600 c0 -5 5 -10 10 -10 6 0 10 5 10 10 0 6 -4 10 -10 10 -5 0
-10 -4 -10 -10z"/>
<path d="M2626 2483 c-6 -43 -10 -146 -7 -210 1 -49 18 -56 51 -23 12 12 26
18 31 14 18 -11 67 56 79 106 14 56 4 87 -40 123 -22 19 -43 27 -70 27 -37 0
-38 -2 -44 -37z"/>
<path d="M3881 2444 c0 -11 3 -14 6 -6 3 7 2 16 -1 19 -3 4 -6 -2 -5 -13z"/>
<path d="M3841 2394 c0 -11 3 -14 6 -6 3 7 2 16 -1 19 -3 4 -6 -2 -5 -13z"/>
<path d="M3860 2389 c0 -5 5 -7 10 -4 6 3 10 8 10 11 0 2 -4 4 -10 4 -5 0 -10
-5 -10 -11z"/>
<path d="M3835 2359 c-4 -6 -5 -12 -2 -15 2 -3 7 2 10 11 7 17 1 20 -8 4z"/>
<path d="M3825 2310 c3 -5 8 -10 11 -10 2 0 4 5 4 10 0 6 -5 10 -11 10 -5 0
-7 -4 -4 -10z"/>
<path d="M3785 2290 c4 -6 11 -8 16 -5 14 9 11 15 -7 15 -8 0 -12 -5 -9 -10z"/>
<path d="M3760 2255 c0 -8 4 -15 9 -15 5 0 11 7 15 15 3 9 0 15 -9 15 -8 0
-15 -7 -15 -15z"/>
<path d="M4996 1910 c-11 -68 -4 -183 12 -188 7 -2 16 6 19 18 3 12 11 19 19
16 7 -3 16 -1 19 4 3 4 0 10 -6 12 -9 3 -8 9 1 24 10 17 10 27 -6 60 -10 21
-24 44 -30 49 -7 6 -14 19 -16 30 -3 12 -8 2 -12 -25z"/>
<path d="M3390 1850 c0 -5 4 -10 9 -10 6 0 13 5 16 10 3 6 -1 10 -9 10 -9 0
-16 -4 -16 -10z"/>
<path d="M3490 1856 c0 -2 7 -7 16 -10 8 -3 12 -2 9 4 -6 10 -25 14 -25 6z"/>
<path d="M3550 1846 c0 -9 5 -16 10 -16 6 0 10 4 10 9 0 6 -4 13 -10 16 -5 3
-10 -1 -10 -9z"/>
<path d="M3370 1820 c0 -5 -8 -10 -17 -10 -16 0 -16 -2 -3 -10 13 -9 12 -13
-9 -30 -13 -11 -19 -20 -13 -20 14 0 42 29 42 43 0 8 4 7 12 -1 7 -7 27 -12
45 -12 26 0 31 3 26 17 -5 13 -2 15 13 10 19 -7 19 -7 0 8 -11 8 -27 15 -35
14 -12 0 -10 -3 4 -9 11 -5 14 -9 7 -9 -7 -1 -10 -5 -7 -11 3 -5 1 -10 -5 -10
-15 0 -41 26 -33 34 4 3 -1 6 -10 6 -9 0 -17 -4 -17 -10z"/>
<path d="M3493 1804 c0 -15 -5 -29 -10 -33 -11 -7 -12 -52 -1 -45 4 3 8 15 9
27 0 21 1 21 10 2 7 -15 7 -11 3 15 -6 33 -5 34 10 15 14 -19 15 -18 4 13 -15
39 -22 41 -25 6z"/>
<path d="M3303 1803 c9 -9 19 -14 23 -11 10 10 -6 28 -24 28 -15 0 -15 -1 1
-17z"/>
<path d="M3530 1816 c0 -2 7 -7 16 -10 8 -3 12 -2 9 4 -6 10 -25 14 -25 6z"/>
<path d="M3570 1816 c0 -2 7 -7 16 -10 8 -3 12 -2 9 4 -6 10 -25 14 -25 6z"/>
<path d="M3276 1773 c-4 -9 -2 -21 4 -27 13 -13 13 -59 1 -51 -5 3 -12 1 -15
-4 -3 -5 5 -11 19 -13 22 -5 24 -3 18 20 -4 17 -2 23 6 18 6 -4 11 -2 11 3 0
6 -9 16 -20 23 -23 15 -27 33 -5 24 9 -3 15 0 15 9 0 20 -26 19 -34 -2z"/>
<path d="M3376 1734 c7 -3 10 -13 8 -22 -5 -21 12 -49 23 -38 4 5 2 11 -4 13
-7 3 -13 11 -13 19 0 8 6 14 13 14 8 0 7 4 -3 10 -8 5 -19 9 -25 9 -5 0 -5 -3
1 -5z"/>
<path d="M3340 1716 c0 -9 5 -16 10 -16 6 0 10 4 10 9 0 6 -4 13 -10 16 -5 3
-10 -1 -10 -9z"/>
<path d="M3510 1700 c8 -5 20 -10 25 -10 6 0 3 5 -5 10 -8 5 -19 10 -25 10 -5
0 -3 -5 5 -10z"/>
<path d="M3331 1664 c0 -11 3 -14 6 -6 3 7 2 16 -1 19 -3 4 -6 -2 -5 -13z"/>
<path d="M3235 1650 c3 -5 8 -10 11 -10 2 0 4 5 4 10 0 6 -5 10 -11 10 -5 0
-7 -4 -4 -10z"/>
<path d="M3256 1633 c-4 -9 -2 -21 4 -27 7 -7 10 -2 10 17 0 31 -5 34 -14 10z"/>
<path d="M3270 1569 c0 -5 5 -7 10 -4 6 3 10 8 10 11 0 2 -4 4 -10 4 -5 0 -10
-5 -10 -11z"/>
<path d="M3295 1550 c3 -5 8 -10 11 -10 2 0 4 5 4 10 0 6 -5 10 -11 10 -5 0
-7 -4 -4 -10z"/>
<path d="M5081 1414 c0 -11 3 -14 6 -6 3 7 2 16 -1 19 -3 4 -6 -2 -5 -13z"/>
<path d="M5040 1390 c0 -5 5 -10 11 -10 5 0 7 5 4 10 -3 6 -8 10 -11 10 -2 0
-4 -4 -4 -10z"/>
<path d="M5071 1383 c4 -24 -3 -43 -15 -43 -8 0 -17 -14 -21 -31 -4 -17 -13
-33 -21 -36 -11 -4 -12 -8 -3 -20 10 -11 8 -15 -9 -20 -12 -3 -22 -12 -22 -20
0 -8 -4 -12 -8 -9 -14 8 -46 -56 -47 -91 0 -18 4 -33 9 -33 4 0 6 -17 4 -39
-2 -29 0 -37 10 -34 7 3 12 2 11 -3 -1 -5 -1 -18 0 -28 1 -18 2 -18 21 -1 19
17 20 17 52 -16 18 -19 38 -43 45 -54 9 -16 12 33 12 233 1 162 -3 252 -9 252
-5 0 -9 -3 -9 -7z"/>
<path d="M4440 983 c0 -29 15 -37 34 -17 10 9 16 11 16 4 0 -7 6 -10 14 -7 8
3 17 1 20 -6 3 -7 5 -6 5 4 1 22 -29 58 -35 42 -3 -7 -10 -13 -15 -13 -6 0 -8
4 -4 9 3 6 -4 9 -15 8 -14 -1 -20 -8 -20 -24z"/>
<path d="M2315 870 c-14 -16 -16 -23 -7 -32 9 -9 12 -9 12 0 0 7 5 12 11 12
11 0 39 24 39 34 0 14 -39 4 -55 -14z"/>
<path d="M4488 862 c-21 -4 -23 -13 -6 -30 9 -9 9 -18 0 -37 -7 -15 -8 -24 -3
-20 5 3 12 1 16 -5 9 -15 65 27 65 49 0 29 -38 51 -72 43z m32 -42 c0 -5 -4
-10 -10 -10 -5 0 -10 5 -10 10 0 6 5 10 10 10 6 0 10 -4 10 -10z m-10 -24 c0
-3 -4 -8 -10 -11 -5 -3 -10 -1 -10 4 0 6 5 11 10 11 6 0 10 -2 10 -4z"/>
<path d="M2362 781 c-11 -7 -11 -9 1 -14 9 -3 21 1 27 9 10 11 10 14 -1 14 -8
0 -20 -4 -27 -9z"/>
<path d="M4616 742 c-3 -6 -3 -18 1 -28 4 -12 3 -15 -5 -10 -7 4 -12 3 -12 -2
0 -5 -10 -12 -21 -15 -15 -4 -20 -11 -15 -22 5 -13 1 -15 -14 -10 -14 5 -20 2
-20 -10 0 -9 6 -15 13 -14 26 3 35 -2 42 -23 4 -15 8 -18 12 -10 4 10 8 10 19
1 12 -10 12 -14 2 -21 -9 -6 -5 -7 10 -3 16 5 22 2 22 -9 0 -9 4 -16 8 -16 15
0 32 24 32 44 0 20 0 20 -15 0 -13 -17 -14 -17 -15 -2 0 11 -5 15 -15 12 -8
-4 -15 -1 -15 5 0 6 10 11 23 11 21 1 21 1 2 12 -19 11 -19 11 0 19 20 7 20 7
0 15 -28 11 -35 25 -23 47 11 21 -4 48 -16 29z"/>
<path d="M2471 576 c0 -11 -4 -17 -7 -13 -9 9 -36 -21 -29 -33 3 -5 15 -10 26
-10 11 0 22 -7 26 -16 5 -14 8 -12 19 7 10 18 13 19 14 7 0 -19 28 -18 40 1 6
11 9 11 16 -1 12 -20 51 -29 80 -18 13 5 26 5 29 1 3 -5 14 -7 25 -4 23 6 20
34 -8 65 -14 17 -16 17 -27 1 -11 -15 -13 -15 -21 0 -11 19 -64 34 -64 18 0
-6 -7 -11 -15 -11 -8 0 -15 -7 -15 -15 0 -13 -5 -12 -22 5 -13 12 -24 16 -26
10 -6 -16 -30 -12 -35 8 -4 15 -5 15 -6 -2z"/>
<path d="M4690 550 c0 -5 5 -10 10 -10 6 0 10 5 10 10 0 6 -4 10 -10 10 -5 0
-10 -4 -10 -10z"/>
<path d="M2500 401 c0 -10 19 -25 25 -20 1 2 -3 10 -11 17 -8 7 -14 8 -14 3z"/>
<path d="M2577 396 c-4 -9 3 -16 21 -19 36 -7 49 3 27 20 -24 17 -41 17 -48
-1z"/>
<path d="M2681 384 c0 -11 3 -14 6 -6 3 7 2 16 -1 19 -3 4 -6 -2 -5 -13z"/>
<path d="M2780 378 c0 -26 9 -28 195 -43 33 -3 76 -10 95 -15 38 -11 90 -13
90 -4 0 25 -24 44 -55 44 -19 0 -35 4 -35 9 0 4 -25 7 -55 6 -31 -1 -58 2 -61
6 -2 4 -16 6 -29 3 -15 -3 -25 0 -25 7 0 7 -9 4 -22 -7 -12 -10 -18 -13 -14
-6 5 7 1 12 -11 13 -70 5 -73 5 -73 -13z"/>
<path d="M2700 374 c0 -8 5 -12 10 -9 6 4 8 11 5 16 -9 14 -15 11 -15 -7z"/>
<path d="M4886 299 c-3 -18 -12 -29 -23 -30 -10 0 -26 -2 -35 -4 -10 -2 -20 0
-23 4 -2 5 -24 5 -48 1 -24 -3 -65 -6 -90 -5 -29 2 -47 -2 -47 -9 0 -7 -3 -8
-8 -1 -4 6 -36 10 -72 9 -123 -2 -110 12 -110 -118 l0 -113 83 -5 c45 -3 193
-6 330 -7 l247 -2 0 121 0 120 -27 1 c-16 1 -32 1 -37 0 -18 -4 -75 30 -81 48
-3 11 -15 19 -29 19 -18 0 -25 -7 -30 -29z"/>
</g>
</svg>
